# xmcd
#
# Track frame offsets: 
#        187
#        17252
#        33275
#        58285
#        80250
#        99792
#        119615
#        142577
#        165355
#        177612
#        195540
#        219330
#
# Disc length: 3227 seconds
#
# Revision: 9
# Processed by: cddbd v1.5.2PL0 Copyright (c) Steve Scherf et al.
# Submitted via: ExactAudioCopy v1.0b4
#
DISCID=8f0c990c
DTITLE=Bonnie Raitt - Luck of the Draw
DYEAR=1985
DGENRE=Rock
TTITLE0=Something To Talk About
TTITLE1=Good Man Good Woman
TTITLE2=I Can't Make You Love Me
TTITLE3=Tangled And Dark
TTITLE4=Come To Me
TTITLE5=No Business
TTITLE6=One Part Be My Lover
TTITLE7=Not The Only One
TTITLE8=Papa Come Quick (Jody And Chico)
TTITLE9=Slow Ride
TTITLE10=Luck Of The Draw
TTITLE11=All At Once
EXTD=YEAR: 1985
EXTT0=
EXTT1=
EXTT2=
EXTT3=
EXTT4=
EXTT5=
EXTT6=
EXTT7=
EXTT8=
EXTT9=
EXTT10=
EXTT11=
PLAYORDER=
